<mxfile host="app.diagrams.net" agent="Mozilla/5.0 (Macintosh; Intel Mac OS X 10_15_7) AppleWebKit/537.36 (KHTML, like Gecko) Chrome/138.0.0.0 Safari/537.36" version="28.0.7">
  <diagram name="Page-1" id="pu-7-L73lY6Pb02MSXt0">
    <mxGraphModel dx="976" dy="574" grid="1" gridSize="10" guides="1" tooltips="1" connect="1" arrows="1" fold="1" page="1" pageScale="1" pageWidth="850" pageHeight="1100" math="0" shadow="0">
      <root>
        <mxCell id="0" />
        <mxCell id="1" parent="0" />
        <mxCell id="foEJXMf0HRlMfBNhh-sD-6" value="" style="edgeStyle=orthogonalEdgeStyle;rounded=0;orthogonalLoop=1;jettySize=auto;html=1;" edge="1" parent="1" source="foEJXMf0HRlMfBNhh-sD-2" target="foEJXMf0HRlMfBNhh-sD-3">
          <mxGeometry relative="1" as="geometry" />
        </mxCell>
        <mxCell id="foEJXMf0HRlMfBNhh-sD-2" value="add room" style="rounded=0;whiteSpace=wrap;html=1;" vertex="1" parent="1">
          <mxGeometry x="80" y="200" width="120" height="60" as="geometry" />
        </mxCell>
        <mxCell id="foEJXMf0HRlMfBNhh-sD-7" style="edgeStyle=orthogonalEdgeStyle;rounded=0;orthogonalLoop=1;jettySize=auto;html=1;entryX=0;entryY=0.5;entryDx=0;entryDy=0;" edge="1" parent="1" source="foEJXMf0HRlMfBNhh-sD-3" target="foEJXMf0HRlMfBNhh-sD-4">
          <mxGeometry relative="1" as="geometry" />
        </mxCell>
        <mxCell id="foEJXMf0HRlMfBNhh-sD-8" style="edgeStyle=orthogonalEdgeStyle;rounded=0;orthogonalLoop=1;jettySize=auto;html=1;" edge="1" parent="1" source="foEJXMf0HRlMfBNhh-sD-3" target="foEJXMf0HRlMfBNhh-sD-5">
          <mxGeometry relative="1" as="geometry" />
        </mxCell>
        <mxCell id="foEJXMf0HRlMfBNhh-sD-3" value="tiktok-rooms" style="rounded=0;whiteSpace=wrap;html=1;" vertex="1" parent="1">
          <mxGeometry x="290" y="200" width="130" height="60" as="geometry" />
        </mxCell>
        <mxCell id="foEJXMf0HRlMfBNhh-sD-4" value="room_realtime_status" style="rounded=0;whiteSpace=wrap;html=1;" vertex="1" parent="1">
          <mxGeometry x="520" y="120" width="120" height="60" as="geometry" />
        </mxCell>
        <mxCell id="foEJXMf0HRlMfBNhh-sD-11" style="edgeStyle=orthogonalEdgeStyle;rounded=0;orthogonalLoop=1;jettySize=auto;html=1;exitX=1;exitY=0.5;exitDx=0;exitDy=0;entryX=0;entryY=0.5;entryDx=0;entryDy=0;" edge="1" parent="1" source="foEJXMf0HRlMfBNhh-sD-5" target="foEJXMf0HRlMfBNhh-sD-9">
          <mxGeometry relative="1" as="geometry" />
        </mxCell>
        <mxCell id="foEJXMf0HRlMfBNhh-sD-12" style="edgeStyle=orthogonalEdgeStyle;rounded=0;orthogonalLoop=1;jettySize=auto;html=1;entryX=0;entryY=0.5;entryDx=0;entryDy=0;" edge="1" parent="1" source="foEJXMf0HRlMfBNhh-sD-5" target="foEJXMf0HRlMfBNhh-sD-10">
          <mxGeometry relative="1" as="geometry" />
        </mxCell>
        <mxCell id="foEJXMf0HRlMfBNhh-sD-5" value="crossDeviceEvents" style="rounded=0;whiteSpace=wrap;html=1;" vertex="1" parent="1">
          <mxGeometry x="520" y="230" width="120" height="60" as="geometry" />
        </mxCell>
        <mxCell id="foEJXMf0HRlMfBNhh-sD-9" value="&lt;meta charset=&quot;utf-8&quot;&gt;&lt;span style=&quot;color: rgb(0, 0, 0); font-family: Helvetica; font-size: 12px; font-style: normal; font-variant-ligatures: normal; font-variant-caps: normal; font-weight: 400; letter-spacing: normal; orphans: 2; text-align: center; text-indent: 0px; text-transform: none; widows: 2; word-spacing: 0px; -webkit-text-stroke-width: 0px; white-space: normal; background-color: rgb(236, 236, 236); text-decoration-thickness: initial; text-decoration-style: initial; text-decoration-color: initial; display: inline !important; float: none;&quot;&gt;Device A&lt;/span&gt;" style="whiteSpace=wrap;html=1;" vertex="1" parent="1">
          <mxGeometry x="720" y="280" width="120" height="70" as="geometry" />
        </mxCell>
        <mxCell id="foEJXMf0HRlMfBNhh-sD-10" value="&lt;span style=&quot;color: rgb(0, 0, 0); font-family: Helvetica; font-size: 12px; font-style: normal; font-variant-ligatures: normal; font-variant-caps: normal; font-weight: 400; letter-spacing: normal; orphans: 2; text-align: center; text-indent: 0px; text-transform: none; widows: 2; word-spacing: 0px; -webkit-text-stroke-width: 0px; white-space: normal; background-color: rgb(236, 236, 236); text-decoration-thickness: initial; text-decoration-style: initial; text-decoration-color: initial; float: none; display: inline !important;&quot;&gt;Device B&lt;/span&gt;" style="whiteSpace=wrap;html=1;" vertex="1" parent="1">
          <mxGeometry x="720" y="400" width="120" height="60" as="geometry" />
        </mxCell>
        <mxCell id="foEJXMf0HRlMfBNhh-sD-13" value="Sync action" style="text;html=1;align=center;verticalAlign=middle;resizable=0;points=[];autosize=1;strokeColor=none;fillColor=none;" vertex="1" parent="1">
          <mxGeometry x="590" y="340" width="90" height="30" as="geometry" />
        </mxCell>
        <mxCell id="foEJXMf0HRlMfBNhh-sD-18" style="edgeStyle=orthogonalEdgeStyle;rounded=0;orthogonalLoop=1;jettySize=auto;html=1;" edge="1" parent="1" source="foEJXMf0HRlMfBNhh-sD-14">
          <mxGeometry relative="1" as="geometry">
            <mxPoint x="935" y="270" as="targetPoint" />
          </mxGeometry>
        </mxCell>
        <mxCell id="foEJXMf0HRlMfBNhh-sD-14" value="EventCoordinator.on (function)" style="text;html=1;align=center;verticalAlign=middle;resizable=0;points=[];autosize=1;strokeColor=none;fillColor=none;" vertex="1" parent="1">
          <mxGeometry x="840" y="358" width="190" height="30" as="geometry" />
        </mxCell>
        <mxCell id="foEJXMf0HRlMfBNhh-sD-20" style="edgeStyle=orthogonalEdgeStyle;rounded=0;orthogonalLoop=1;jettySize=auto;html=1;entryX=1;entryY=0.25;entryDx=0;entryDy=0;" edge="1" parent="1" source="foEJXMf0HRlMfBNhh-sD-19" target="foEJXMf0HRlMfBNhh-sD-5">
          <mxGeometry relative="1" as="geometry" />
        </mxCell>
        <mxCell id="foEJXMf0HRlMfBNhh-sD-19" value="Listen" style="text;html=1;align=center;verticalAlign=middle;resizable=0;points=[];autosize=1;strokeColor=none;fillColor=none;" vertex="1" parent="1">
          <mxGeometry x="905" y="230" width="60" height="30" as="geometry" />
        </mxCell>
        <mxCell id="foEJXMf0HRlMfBNhh-sD-23" value="" style="endArrow=classic;startArrow=classic;html=1;rounded=0;entryX=0.338;entryY=1.033;entryDx=0;entryDy=0;entryPerimeter=0;" edge="1" parent="1" target="foEJXMf0HRlMfBNhh-sD-14">
          <mxGeometry width="50" height="50" relative="1" as="geometry">
            <mxPoint x="850" y="430" as="sourcePoint" />
            <mxPoint x="900" y="380" as="targetPoint" />
          </mxGeometry>
        </mxCell>
        <mxCell id="foEJXMf0HRlMfBNhh-sD-24" value="" style="endArrow=classic;startArrow=classic;html=1;rounded=0;entryX=0.277;entryY=-0.1;entryDx=0;entryDy=0;entryPerimeter=0;" edge="1" parent="1" target="foEJXMf0HRlMfBNhh-sD-14">
          <mxGeometry width="50" height="50" relative="1" as="geometry">
            <mxPoint x="845" y="310" as="sourcePoint" />
            <mxPoint x="905" y="340" as="targetPoint" />
          </mxGeometry>
        </mxCell>
        <mxCell id="foEJXMf0HRlMfBNhh-sD-25" value="Main device" style="text;html=1;align=center;verticalAlign=middle;resizable=0;points=[];autosize=1;strokeColor=none;fillColor=none;" vertex="1" parent="1">
          <mxGeometry x="95" y="170" width="90" height="30" as="geometry" />
        </mxCell>
      </root>
    </mxGraphModel>
  </diagram>
</mxfile>
